<?xml version="1.0" encoding="UTF-8"?>
<svg width="800px" height="800px" viewBox="0 0 32 32" xmlns="http://www.w3.org/2000/svg">
  <path d="M30 15v2c-1.6.7-2.6 1.1-4.3 1.8-1.3.5-2.5.9-3.8 1.1-1.3.2-2.6.1-3.9.1H17v-2h1c1.4 0 2.7-.1 4-.4 1.3-.3 2.5-.7 3.6-1.4 1.1-.6 2-1.5 2.7-2.6.7-1.1 1-2.3 1-3.6 0-1.3-.4-2.5-1.1-3.5-.7-1-1.7-1.8-2.9-2.3-1.2-.5-2.5-.7-3.8-.7-1.4 0-2.7.2-3.9.7-1.2.5-2.2 1.3-2.9 2.3-.7 1-1.1 2.2-1.1 3.5h2c0-.8.2-1.5.7-2.1.4-.6 1-1.1 1.8-1.4.8-.3 1.6-.5 2.5-.5s1.7.2 2.5.5c.8.3 1.4.8 1.8 1.4.4.6.7 1.3.7 2.1 0 .8-.2 1.5-.7 2.1-.4.6-1 1.1-1.8 1.4-.8.3-1.6.5-2.5.5h-1v-2h-2v6h3c1.3 0 2.6-.1 3.9-.4 1.3-.3 2.5-.8 3.6-1.4 1.1-.6 2-1.5 2.7-2.6.7-1.1 1-2.3 1-3.6z" fill="#00599C"/>
  <path d="M11 15v-2H8v-2h3V9h2v2h3v2h-3v2h-2z" fill="#00599C"/>
  <path d="M2 15v-2h3v-2H2V9h2v2h3v2H4v2h3v2H4v-2H2z" fill="#00599C"/>
</svg>
