<?xml version="1.0" encoding="UTF-8"?>
<svg width="800px" height="800px" viewBox="0 0 32 32" xmlns="http://www.w3.org/2000/svg">
  <path d="M15.885,4c-7.1,0-6.651,3.07-6.651,3.07V9.36h6.752v1.1H6.545C6.545,10.46,4,9.77,4,15.738s2.553,5.22,2.553,5.22h1.894c1.588,0,1.447-.66,1.447-1.4V16.5s.086-3.5,3.4-3.5h8.169s2.9.05,2.9-2.8v-4.2s.7-1.9-3.3-1.9h-8.7Zm-3.2,1.48a1.25,1.25,0,1,1-1.25,1.25,1.249,1.249,0,0,1,1.25-1.25Z" fill="#ffd43b"/>
  <path d="M16.1,27.96c7.1,0,6.651-3.07,6.651-3.07V20.6H15.992v-1.1h9.453c0,0,2.555.69,2.555-5.28S24.992,8.92,24.992,8.92H23.1c-1.588,0-1.447.66-1.447,1.4V15.5s-.086,3.5-3.4,3.5h-8.169s-2.9-.05-2.9,2.8v4.2s-.7,1.9,3.3,1.9h8.7Zm-3.2-1.48a1.25,1.25,0,1,1,1.25-1.25,1.249,1.249,0,0,1-1.25,1.25Z" fill="#4584b6"/>
  <path d="M20.3,23.5a1.25,1.25,0,1,1-1.25-1.25,1.249,1.249,0,0,1,1.25,1.25Z" fill="#4584b6"/>
</svg>
